<?xml version="1.0" encoding="utf-8"?>
<!-- Generator: Adobe Illustrator 24.2.1, SVG Export Plug-In . SVG Version: 6.00 Build 0)  -->
<svg version="1.1" id="Camada_2_1_" xmlns="http://www.w3.org/2000/svg" xmlns:xlink="http://www.w3.org/1999/xlink" x="0px"
	 y="0px" viewBox="0 0 476.4 443.8" style="enable-background:new 0 0 476.4 443.8;" xml:space="preserve">
<style type="text/css">
	.st0{fill:#1D1D1B;}
	.st1{font-family:'Impact';}
	.st2{font-size:84px;}
	.st3{font-size:84.3562px;}
	.st4{font-size:83.8402px;}
	.st5{font-size:84.3521px;}
	.st6{font-size:84.4774px;}
	.st7{font-size:84.1049px;}
	.st8{font-size:83.6718px;}
	.st9{font-size:84.1762px;}
	.st10{font-size:83.5705px;}
</style>
<text transform="matrix(-0.7932 -0.6089 0.6089 -0.7932 151.7706 369.609)" class="st0 st1 st2">F</text>
<text transform="matrix(-0.6174 -0.7867 0.7867 -0.6174 123.63 348.7488)" class="st0 st1 st3">U</text>
<text transform="matrix(-0.4108 -0.9117 0.9117 -0.4108 95.1904 310.8805)" class="st0 st1 st4">L</text>
<text transform="matrix(-0.2081 -0.9781 0.9781 -0.2081 81.5702 279.7689)" class="st0 st1 st2">L</text>
<text transform="matrix(2.513014e-02 -0.9997 0.9997 2.513014e-02 74.1801 247.5892)" class="st0 st1 st2">S</text>
<text transform="matrix(0.281 -0.9597 0.9597 0.281 75.7801 202.739)" class="st0 st1 st2">T</text>
<text transform="matrix(0.5005 -0.8658 0.8658 0.5005 85.7802 167.0596)" class="st0 st1 st2">A</text>
<text transform="matrix(0.717 -0.6971 0.6971 0.717 107.6202 129.0802)" class="st0 st1 st5">C</text>
<text transform="matrix(0.8852 -0.4653 0.4653 0.8852 141.9803 96.1701)" class="st0 st1 st2">K</text>
<text transform="matrix(0.8908 0.4543 -0.4543 0.8908 290.9502 74.2096)" class="st0 st1 st2">D</text>
<text transform="matrix(0.7458 0.6662 -0.6662 0.7458 333.0603 96.7198)" class="st0 st1 st6">E</text>
<text transform="matrix(0.5593 0.829 -0.829 0.5593 360.5296 120.6993)" class="st0 st1 st7">V</text>
<text transform="matrix(0.3368 0.9416 -0.9416 0.3368 385.3205 158.7197)" class="st0 st1 st2">E</text>
<text transform="matrix(0.1259 0.992 -0.992 0.1259 397.3604 193.4798)" class="st0 st1 st2">L</text>
<text transform="matrix(-0.1104 0.9939 -0.9939 -0.1104 402.2097 225.5501)" class="st0 st1 st8">O</text>
<text transform="matrix(-0.3788 0.9255 -0.9255 -0.3788 396.5798 272.2394)" class="st0 st1 st2">P</text>
<text transform="matrix(-0.5888 0.8083 -0.8083 -0.5888 379.4597 312.3802)" class="st0 st1 st9">E</text>
<text transform="matrix(-0.774 0.6332 -0.6332 -0.774 358.2595 342.0294)" class="st0 st1 st10">R</text>
</svg>
